<?xml version="1.0" encoding="utf-8"?>
<!-- Generator: Adobe Illustrator 24.0.1, SVG Export Plug-In . SVG Version: 6.00 Build 0)  -->
<svg version="1.1" id="Warstwa_1" xmlns="http://www.w3.org/2000/svg" xmlns:xlink="http://www.w3.org/1999/xlink" x="0px" y="0px"
	 viewBox="0 0 58.9 59" style="enable-background:new 0 0 58.9 59;" xml:space="preserve">
<style type="text/css">
	.st0{fill:#FFD600;}
</style>
<g>
	<circle class="st0" cx="29.4" cy="29.5" r="29"/>
	<g>
		<polygon points="27.8,37 26.5,43.1 27.2,43.1 28.5,37 		"/>
		<polygon points="33.1,40.4 31.9,40.4 31.8,41.1 32.3,41.1 32.1,41.9 32,42.3 31.8,42.4 31.6,42.5 31.3,42.5 31.1,42.5 30.9,42.4 
			30.8,42.2 30.8,41.9 31.6,38.2 31.7,37.9 31.9,37.8 32.1,37.7 32.4,37.6 32.6,37.7 32.7,37.9 32.8,38.1 32.8,38.4 32.6,39.5 
			33.3,39.5 33.6,38 33.6,37.7 33.4,37.4 33.2,37.2 33,37.1 32.4,37 31.7,37.1 31.3,37.3 31.1,37.7 30.9,38.1 30.2,41.7 30.1,42.1 
			30.1,42.4 30.2,42.6 30.3,42.8 30.5,42.9 30.7,43 31.3,43.1 31.8,43 32.2,42.9 32.5,42.7 32.7,42.1 		"/>
		<polygon points="29.9,37 29.2,37 27.9,43.1 29.8,43.1 30,42.4 28.8,42.4 		"/>
		<path d="M36.4,14.9l-1.1,0l-1.2,0.2l-0.7,0.2l-0.7,0.3l-0.7,0.4l-0.6,0.5l-0.5,0.6l-0.5,0.7l-0.4,0.8l-0.3,0.9l-1,0.7l-1,0.8
			l-1,0.9l-0.8,1L25.1,24l-0.7,1.3l-0.6,1.4l-0.4,1.5l-0.3,1.5l-0.2,1.6l-0.2,3.8l-0.7,0.3l-0.8,0.3v1.1l0.8-0.2l0.7-0.3l0,6.8h0.5
			l1.5-3.6l-0.1,3.6h0.5l2.3-6h-0.8l-1.2,3l0-3H25l-1.3,3.4l0.3-4.5l1.1-0.5l1.1-0.6l1-0.6l0.9-0.7l0.9-0.7l0.8-0.8l0.8-0.9l0.8-1
			l0.6-0.8l0.5-0.9l0.5-1l0.4-1l0.4-1l0.3-1.1l0.4-2l0.5-4.4l0.1-0.5l0.2-0.7l0.2-0.4l0.2-0.3l0.3-0.2l0.3-0.1l0.7-0.1l0.7,0v-0.6
			L36.4,14.9z M33.7,21.1l-0.4,2.2L33,24.4l-0.4,1.1l-0.4,1.1l-0.5,1.1L31,28.8l-0.7,1.1l-0.8,1.1l-1,0.9l-1,0.9l-1.1,0.7l-1.2,0.7
			l-1.3,0.6l0.2-3.7l0.2-1.5l0.2-1.2l0.3-1.1l0.4-1l0.5-1l0.5-1.1l0.7-0.9l0.7-0.8l0.8-0.8l0.9-0.7l1-0.7l1.1-0.6l1.2-0.4l1.5-0.4
			L33.7,21.1z M34.5,16.2l-0.2,0.6l-0.1,0.6L34,18l-1.6,0.4l-1.5,0.5l0.2-0.7l0.3-0.6l0.4-0.5l0.4-0.4l0.5-0.4l0.6-0.3l0.6-0.2
			l0.7-0.1L34.5,16.2z"/>
		<polygon points="33.8,16.4 33.6,16.3 33.5,16.4 33.3,16.4 33.2,16.7 33.3,16.9 33.5,17 33.6,17 33.8,17 33.9,16.9 33.9,16.7 
			33.9,16.4 		"/>
		<path d="M34.9,37l-2.2,6.1h0.7l0.7-1.9h1v1.9h0.8L35.7,37H34.9z M34.4,40.4l0.6-1.8l0,1.8H34.4z"/>
	</g>
</g>
</svg>
